<svg width="326" height="110" viewBox="0 0 326 110" fill="none" xmlns="http://www.w3.org/2000/svg">
<g style="mix-blend-mode:darken">
<path d="M40.16 76C43.0933 76 45.9333 75.6267 48.68 74.88C51.4533 74.1333 53.9333 73.0133 56.12 71.52C58.3066 70 60.04 68.0933 61.32 65.8C62.6266 63.48 63.28 60.7733 63.28 57.68C63.28 54.7733 62.7333 52.3733 61.64 50.48C60.5733 48.5867 59.2 47.0667 57.52 45.92C55.8666 44.7467 54.1333 43.84 52.32 43.2C50.5066 42.5333 48.8533 42 47.36 41.6L37.36 38.88C36.1333 38.56 34.9333 38.16 33.76 37.68C32.5866 37.2 31.6133 36.5733 30.84 35.8C30.0666 35 29.68 33.9733 29.68 32.72C29.68 31.36 30.1466 30.1867 31.08 29.2C32.04 28.2133 33.2666 27.4667 34.76 26.96C36.28 26.4267 37.8933 26.1867 39.6 26.24C42.2133 26.32 44.6133 27.0933 46.8 28.56C48.9866 30.0267 50.4 32.16 51.04 34.96L62.8 32.96C61.4133 27.5467 58.72 23.4 54.72 20.52C50.72 17.64 45.7333 16.16 39.76 16.08C35.8133 16.0533 32.2133 16.6667 28.96 17.92C25.7066 19.1733 23.1066 21.08 21.16 23.64C19.2133 26.2 18.24 29.4133 18.24 33.28C18.24 36.0267 18.6933 38.3067 19.6 40.12C20.5333 41.9067 21.6933 43.3467 23.0799 44.44C24.4666 45.5333 25.8933 46.3733 27.36 46.96C28.8533 47.5467 30.16 48 31.28 48.32L46.24 52.72C48.48 53.3867 49.9733 54.2267 50.72 55.24C51.4666 56.2267 51.84 57.3067 51.84 58.48C51.84 60.08 51.2933 61.4267 50.2 62.52C49.1333 63.6133 47.76 64.44 46.08 65C44.4 65.56 42.6666 65.84 40.88 65.84C37.68 65.84 34.8266 64.9467 32.32 63.16C29.8133 61.3733 28.16 58.8267 27.36 55.52L16 57.2C16.5866 61.0933 17.9733 64.4533 20.16 67.28C22.3733 70.08 25.1866 72.24 28.6 73.76C32.04 75.2533 35.8933 76 40.16 76ZM84.0722 76C87.4052 76 90.2052 75.4933 92.4722 74.48C94.7652 73.44 96.8722 71.7867 98.7922 69.52V74.8H108.312V48.4C108.312 46.4267 108.232 44.64 108.072 43.04C107.912 41.44 107.405 39.84 106.552 38.24C105.032 35.36 102.792 33.3333 99.8322 32.16C96.8722 30.9867 93.4852 30.4 89.6722 30.4C84.4722 30.4 80.3652 31.52 77.3518 33.76C74.3385 36 72.2852 38.9067 71.1918 42.48L81.0322 45.6C81.7252 43.6267 82.9382 42.2533 84.6722 41.48C86.4052 40.7067 88.0722 40.32 89.6722 40.32C92.2322 40.32 94.1382 40.8 95.3922 41.76C96.6452 42.6933 97.3782 44.1733 97.5922 46.2C93.5382 46.7867 89.9652 47.36 86.8722 47.92C83.7782 48.4533 81.1922 49.0933 79.1118 49.84C75.6452 51.12 73.2052 52.8667 71.7918 55.08C70.3785 57.2667 69.6718 59.8667 69.6718 62.88C69.6718 65.28 70.2185 67.48 71.3118 69.48C72.4318 71.4533 74.0585 73.04 76.1918 74.24C78.3518 75.4133 80.9782 76 84.0722 76ZM86.3922 67.44C84.5252 67.44 83.0452 67.0267 81.9522 66.2C80.8582 65.3467 80.3122 64.1867 80.3122 62.72C80.3122 61.6267 80.6582 60.6933 81.3522 59.92C82.0452 59.12 83.1922 58.4 84.7922 57.76C86.0182 57.3067 87.5252 56.8933 89.3122 56.52C91.1252 56.12 93.8582 55.6133 97.5122 55C97.4852 56.04 97.4052 57.1867 97.2722 58.44C97.1382 59.6667 96.8452 60.7467 96.3922 61.68C96.0982 62.2933 95.5382 63.0533 94.7122 63.96C93.9122 64.8667 92.8182 65.68 91.4322 66.4C90.0722 67.0933 88.3922 67.44 86.3922 67.44ZM122.312 74.8H133.192V40H143.192V31.6H133.192V29.2C133.192 28 133.606 26.9733 134.432 26.12C135.259 25.24 136.526 24.8 138.232 24.8H143.192V16H137.832C136.792 16 135.539 16.0267 134.072 16.08C132.606 16.1067 131.086 16.4 129.512 16.96C127.966 17.4933 126.526 18.5067 125.192 20C124.179 21.12 123.472 22.3733 123.072 23.76C122.672 25.1467 122.446 26.5333 122.392 27.92C122.339 29.28 122.312 30.5067 122.312 31.6H115.512V40H122.312V74.8ZM160.4 76C163.733 76 166.533 75.4933 168.8 74.48C171.093 73.44 173.2 71.7867 175.12 69.52V74.8H184.64V48.4C184.64 46.4267 184.56 44.64 184.4 43.04C184.24 41.44 183.733 39.84 182.88 38.24C181.36 35.36 179.12 33.3333 176.16 32.16C173.2 30.9867 169.813 30.4 166 30.4C160.8 30.4 156.693 31.52 153.68 33.76C150.666 36 148.613 38.9067 147.52 42.48L157.36 45.6C158.053 43.6267 159.266 42.2533 161 41.48C162.733 40.7067 164.4 40.32 166 40.32C168.56 40.32 170.466 40.8 171.72 41.76C172.973 42.6933 173.706 44.1733 173.92 46.2C169.866 46.7867 166.293 47.36 163.2 47.92C160.106 48.4533 157.52 49.0933 155.44 49.84C151.973 51.12 149.533 52.8667 148.12 55.08C146.706 57.2667 146 59.8667 146 62.88C146 65.28 146.546 67.48 147.64 69.48C148.76 71.4533 150.386 73.04 152.52 74.24C154.68 75.4133 157.306 76 160.4 76ZM162.72 67.44C160.853 67.44 159.373 67.0267 158.28 66.2C157.186 65.3467 156.64 64.1867 156.64 62.72C156.64 61.6267 156.986 60.6933 157.68 59.92C158.373 59.12 159.52 58.4 161.12 57.76C162.346 57.3067 163.853 56.8933 165.64 56.52C167.453 56.12 170.186 55.6133 173.84 55C173.813 56.04 173.733 57.1867 173.6 58.44C173.466 59.6667 173.173 60.7467 172.72 61.68C172.426 62.2933 171.866 63.0533 171.04 63.96C170.24 64.8667 169.146 65.68 167.76 66.4C166.4 67.0933 164.72 67.44 162.72 67.44ZM195.84 74.8H206.72V16H195.84V74.8ZM218.632 94H229.592V73.24C231.006 74.12 232.566 74.8 234.272 75.28C236.006 75.76 237.886 76 239.912 76C243.886 76 247.366 75 250.352 73C253.339 71 255.659 68.28 257.312 64.84C258.992 61.4 259.832 57.52 259.832 53.2C259.832 48.8 258.979 44.8933 257.272 41.48C255.592 38.04 253.219 35.3333 250.152 33.36C247.086 31.3867 243.486 30.4 239.352 30.4C237.112 30.4 235.059 30.72 233.192 31.36C231.352 31.9733 229.699 32.8533 228.232 34V31.6H218.632V94ZM238.152 66.32C234.526 66.32 231.966 65.12 230.472 62.72C228.979 60.2933 228.232 57.12 228.232 53.2C228.232 49.28 228.966 46.12 230.432 43.72C231.926 41.2933 234.366 40.08 237.752 40.08C240.179 40.08 242.166 40.68 243.712 41.88C245.286 43.0533 246.446 44.64 247.192 46.64C247.939 48.6133 248.312 50.8 248.312 53.2C248.312 55.6267 247.952 57.84 247.232 59.84C246.512 61.8133 245.406 63.3867 243.912 64.56C242.419 65.7333 240.499 66.32 238.152 66.32ZM268.554 94H279.514V73.24C280.927 74.12 282.487 74.8 284.194 75.28C285.927 75.76 287.807 76 289.834 76C293.807 76 297.287 75 300.274 73C303.261 71 305.581 68.28 307.234 64.84C308.914 61.4 309.754 57.52 309.754 53.2C309.754 48.8 308.901 44.8933 307.194 41.48C305.514 38.04 303.141 35.3333 300.074 33.36C297.007 31.3867 293.407 30.4 289.274 30.4C287.034 30.4 284.981 30.72 283.114 31.36C281.274 31.9733 279.621 32.8533 278.154 34V31.6H268.554V94ZM288.074 66.32C284.447 66.32 281.887 65.12 280.394 62.72C278.901 60.2933 278.154 57.12 278.154 53.2C278.154 49.28 278.887 46.12 280.354 43.72C281.847 41.2933 284.287 40.08 287.674 40.08C290.101 40.08 292.087 40.68 293.634 41.88C295.207 43.0533 296.367 44.64 297.114 46.64C297.861 48.6133 298.234 50.8 298.234 53.2C298.234 55.6267 297.874 57.84 297.154 59.84C296.434 61.8133 295.327 63.3867 293.834 64.56C292.341 65.7333 290.421 66.32 288.074 66.32Z" fill="#497CAC"/>
</g>
</svg>
