<svg width="29" height="29" viewBox="0 0 29 29" fill="none" xmlns="http://www.w3.org/2000/svg">
<path d="M19.8768 11.0042C19.4792 11.1894 18.9757 11.3633 18.5245 11.4211C18.9834 11.1349 19.7113 10.5391 19.8768 10C19.4481 10.2648 18.6728 10.5476 18.1671 10.6499C17.7632 10.1999 17.1871 10 16.5488 10C15.3228 10 14.4677 11.0918 14.4677 12.3684V13.3158C12.6647 13.3158 10.9067 11.8725 9.81271 10.4737C9.6149 10.8262 9.51105 11.2283 9.51206 11.6375C9.51206 12.4992 10.2653 13.3736 10.8616 13.7895C10.4979 13.7776 9.80911 13.4858 9.50935 13.3158V13.3428C9.50935 14.464 10.2581 15.2252 11.2727 15.4374C11.0875 15.4909 10.8616 15.6842 9.99256 15.6842C10.2747 16.6008 11.6933 17.0854 12.6647 17.1053C11.9047 17.7244 10.5497 18.0526 9.50935 18.0526C9.3295 18.0526 9.23214 18.0631 9.05859 18.0417C10.0403 18.6954 11.4115 19 12.6647 19C16.7472 19 18.9753 15.7231 18.9753 12.6668C18.9753 12.5664 18.9721 12.2301 18.9671 12.1316C19.4035 11.8085 19.5802 11.4703 19.8768 11.0042Z" fill="#646464"/>
</svg>
